<svg xmlns="http://www.w3.org/2000/svg" viewBox="0 0 1400 860" role="img" aria-labelledby="title desc">
<title id="title">AI Engineer World's Fair 2026 Phrase Word Cloud</title>
<desc id="desc">Phrase-preserving word cloud generated from transcripts, slides, official schedule data, and wiki source pages.</desc>
<rect width="100%" height="100%" fill="#f8fafc"/>
<g font-family="DejaVu Sans, Arial, sans-serif" font-weight="700">
<text x="547" y="461" font-size="59" fill="#0f766e">MCP apps</text>
<text x="501" y="522" font-size="54" fill="#047857">computer use</text>
<text x="411" y="393" font-size="53" fill="#047857">context engineering</text>
<text x="340" y="329" font-size="51" fill="#1d4ed8">reinforcement learning</text>
<text x="440" y="597" font-size="71" fill="#0f766e">world&#x27;s fair</text>
<text x="565" y="266" font-size="71" fill="#334155">AI agents</text>
<text x="424" y="680" font-size="68" fill="#7c3aed">coding agents</text>
<text x="202" y="524" font-size="81" fill="#be123c">model</text>
<text x="497" y="183" font-size="68" fill="#7c3aed">AI engineer</text>
<text x="931" y="520" font-size="80" fill="#047857">code</text>
<text x="927" y="578" font-size="43" fill="#0f766e">agentic search</text>
<text x="552" y="744" font-size="65" fill="#334155">open source</text>
<text x="332" y="102" font-size="41" fill="#b45309">model context protocol</text>
<text x="201" y="409" font-size="77" fill="#1d4ed8">data</text>
<text x="206" y="261" font-size="75" fill="#be123c">models</text>
<text x="570" y="815" font-size="62" fill="#334155">google deepmind</text>
<text x="1026" y="379" font-size="73" fill="#9333ea">context</text>
<text x="1017" y="296" font-size="72" fill="#0f766e">systems</text>
<text x="207" y="591" font-size="72" fill="#9333ea">tools</text>
<text x="985" y="673" font-size="72" fill="#1d4ed8">system</text>
<text x="40" y="678" font-size="72" fill="#be123c">engineer</text>
<text x="152" y="336" font-size="71" fill="#b45309">tool</text>
<text x="961" y="204" font-size="71" fill="#334155">product</text>
<text x="974" y="446" font-size="34" fill="#be123c">agentic web</text>
<text x="286" y="187" font-size="69" fill="#0f766e">built</text>
<text x="188" y="774" font-size="69" fill="#be123c">software</text>
<text x="886" y="73" font-size="32" fill="#1d4ed8">browser automation</text>
<text x="150" y="119" font-size="67" fill="#b45309">loop</text>
<text x="1013" y="731" font-size="66" fill="#047857">team</text>
<text x="1192" y="794" font-size="64" fill="#334155">task</text>
<text x="29" y="392" font-size="63" fill="#1d4ed8">case</text>
<text x="1220" y="437" font-size="63" fill="#7c3aed">sort</text>
<text x="40" y="540" font-size="62" fill="#334155">able</text>
<text x="136" y="190" font-size="62" fill="#b45309">find</text>
<text x="1220" y="729" font-size="62" fill="#047857">test</text>
<text x="34" y="445" font-size="26" fill="#9333ea">self-driving production</text>
<text x="49" y="759" font-size="61" fill="#047857">last</text>
<text x="1162" y="524" font-size="17" fill="#1d4ed8">nearly headless</text>
</g>
</svg>
