<svg xmlns="http://www.w3.org/2000/svg" viewBox="0 0 1400 860" role="img" aria-labelledby="title desc">
<title id="title">AI Engineer World's Fair 2026 Phrase Word Cloud</title>
<desc id="desc">Phrase-preserving word cloud generated from transcripts, slides, official schedule data, and wiki source pages.</desc>
<rect width="100%" height="100%" fill="#f8fafc"/>
<g font-family="DejaVu Sans, Arial, sans-serif" font-weight="700">
<text x="547" y="461" font-size="59" fill="#0f766e">MCP apps</text>
<text x="498" y="523" font-size="55" fill="#047857">computer use</text>
<text x="411" y="393" font-size="53" fill="#047857">context engineering</text>
<text x="333" y="330" font-size="52" fill="#1d4ed8">reinforcement learning</text>
<text x="475" y="603" font-size="71" fill="#047857">AI agents</text>
<text x="505" y="268" font-size="70" fill="#1d4ed8">world&#x27;s fair</text>
<text x="476" y="685" font-size="68" fill="#1d4ed8">AI engineer</text>
<text x="414" y="194" font-size="68" fill="#be123c">coding agents</text>
<text x="200" y="521" font-size="81" fill="#047857">model</text>
<text x="869" y="599" font-size="80" fill="#047857">code</text>
<text x="915" y="446" font-size="43" fill="#0f766e">agentic search</text>
<text x="538" y="756" font-size="65" fill="#334155">open source</text>
<text x="583" y="114" font-size="41" fill="#b45309">model context protocol</text>
<text x="204" y="420" font-size="77" fill="#1d4ed8">data</text>
<text x="132" y="590" font-size="75" fill="#be123c">models</text>
<text x="1032" y="384" font-size="73" fill="#9333ea">context</text>
<text x="937" y="518" font-size="73" fill="#334155">tools</text>
<text x="123" y="693" font-size="72" fill="#1d4ed8">systems</text>
<text x="1028" y="288" font-size="72" fill="#1d4ed8">system</text>
<text x="270" y="262" font-size="71" fill="#1d4ed8">tool</text>
<text x="937" y="685" font-size="71" fill="#334155">engineer</text>
<text x="967" y="198" font-size="70" fill="#334155">product</text>
<text x="1138" y="572" font-size="34" fill="#be123c">agentic web</text>
<text x="344" y="811" font-size="56" fill="#be123c">software factories</text>
<text x="137" y="346" font-size="69" fill="#0f766e">built</text>
<text x="38" y="185" font-size="69" fill="#be123c">software</text>
<text x="41" y="114" font-size="68" fill="#0f766e">production</text>
<text x="70" y="759" font-size="68" fill="#334155">human</text>
<text x="1019" y="766" font-size="67" fill="#b45309">loop</text>
<text x="949" y="820" font-size="53" fill="#0f766e">local AI</text>
<text x="1136" y="102" font-size="66" fill="#9333ea">team</text>
<text x="1202" y="752" font-size="64" fill="#be123c">task</text>
<text x="46" y="411" font-size="63" fill="#b45309">find</text>
<text x="346" y="753" font-size="63" fill="#7c3aed">open</text>
<text x="120" y="253" font-size="62" fill="#047857">test</text>
<text x="1155" y="527" font-size="17" fill="#1d4ed8">nearly headless</text>
</g>
</svg>
